<!-- Generated by IcoMoon.io -->
<svg version="1.1" xmlns="http://www.w3.org/2000/svg" width="768" height="768" viewBox="0 0 768 768">
<title></title>
<g id="icomoon-ignore">
</g>
<path d="M384 0q150 0 260.25 101.25t122.25 249.75h-48q-7.5-88.5-59.25-160.5t-131.25-109.5l-43.5 42-121.5-121.5zM529.5 378q0-85.5-70.5-85.5h-30v184.5h28.5q54 0 69-51 3-10.5 3-36v-12zM459 256.5q79.5 0 108 70.5 7.5 18 7.5 51v12q0 57-31.5 88.5-33 33-85.5 33h-73.5v-255h75zM310.5 381q42 16.5 42 58.5 0 15-7.5 30-9 18-16.5 24-22.5 18-60 18-36 0-58.5-18t-22.5-52.5h40.5q0 16.5 11.25 27t29.25 10.5q42 0 42-40.5t-46.5-40.5h-24v-33h24q43.5 0 43.5-37.5t-39-37.5q-37.5 0-37.5 34.5h-42q0-25.5 22.5-48 24-19.5 57-19.5 36 0 57.75 18t21.75 52.5q0 37.5-37.5 54zM240 687l43.5-42 121.5 121.5-21 1.5q-150 0-260.25-102t-122.25-250.5h48q7.5 79.5 63 159t127.5 112.5z"></path>
</svg>
